<svg xmlns="http://www.w3.org/2000/svg" version="1.1" viewBox="0.00 0.00 210.00 210.00" width="1000" height="1000">
    <path stroke="#808080" stroke-width="2.00" fill="none" stroke-linecap="butt"
            d="&#10;  M 60.52 116.17&#10;  C 60.36 110.37 73.64 104.27 78.00 102.54&#10;  Q 83.37 100.40 104.60 95.16&#10;  Q 109.71 93.90 115.87 93.16&#10;  Q 121.27 92.51 126.99 91.20&#10;  Q 145.83 86.90 163.23 82.69&#10;  Q 171.69 80.64 184.76 77.23&#10;  Q 188.63 76.22 190.32 71.70&#10;  C 191.64 68.16 188.22 64.01 185.68 61.11&#10;  Q 176.97 51.16 168.27 42.44&#10;  Q 167.15 41.32 165.74 40.61&#10;  Q 161.13 38.31 156.76 36.22&#10;  Q 153.28 34.54 146.73 33.46&#10;  C 144.72 33.13 143.02 31.95 141.00 31.52&#10;  Q 132.03 29.57 126.35 29.17&#10;  Q 121.13 28.79 111.01 29.37&#10;  Q 104.23 29.76 97.75 32.00&#10;  Q 91.62 34.12 86.04 36.93&#10;  Q 80.78 39.59 75.86 43.53&#10;  C 69.04 49.01 61.98 54.04 57.04 60.48&#10;  Q 50.25 69.35 42.81 79.49&#10;  C 40.37 82.81 38.52 86.43 36.14 89.63&#10;  Q 33.51 93.14 31.17 97.53&#10;  C 28.33 102.85 25.55 108.12 22.98 113.53&#10;  Q 20.40 118.97 17.71 122.85&#10;  Q 15.68 125.80 13.18 128.96&#10;  C 10.37 132.51 7.06 135.50 4.61 139.24&#10;  C 0.38 145.71 3.63 154.01 9.05 158.54&#10;  Q 12.91 161.75 17.61 160.96&#10;  Q 26.03 159.53 35.29 162.16&#10;  Q 51.07 166.65 69.21 171.67&#10;  Q 75.82 173.50 81.99 174.41&#10;  C 88.68 175.40 95.24 177.51 102.00 177.92&#10;  Q 108.66 178.33 115.50 178.50&#10;  Q 121.75 178.66 129.19 177.67&#10;  Q 144.91 175.58 155.49 173.19&#10;  C 173.72 169.07 188.99 159.91 196.47 142.11&#10;  C 201.07 131.19 201.80 116.08 200.78 104.51&#10;  C 200.41 100.20 197.93 86.54 192.65 84.87&#10;  Q 187.35 83.20 181.54 83.86&#10;  C 173.74 84.75 165.47 87.06 157.22 88.57&#10;  Q 149.92 89.91 141.88 91.59&#10;  C 132.42 93.57 125.88 95.94 117.98 100.80&#10;  C 115.30 102.46 112.27 103.58 109.48 105.06&#10;  Q 98.56 110.86 87.47 116.33&#10;  C 82.18 118.94 71.60 126.62 65.67 124.98&#10;  C 61.74 123.90 60.63 120.11 60.52 116.17" />
    <path fill="#000000"
            d="&#10;  M 0.00 0.00&#10;  L 210.00 0.00&#10;  L 210.00 210.00&#10;  L 0.00 210.00&#10;  L 0.00 0.00&#10;  Z&#10;  M 60.52 116.17&#10;  C 60.36 110.37 73.64 104.27 78.00 102.54&#10;  Q 83.37 100.40 104.60 95.16&#10;  Q 109.71 93.90 115.87 93.16&#10;  Q 121.27 92.51 126.99 91.20&#10;  Q 145.83 86.90 163.23 82.69&#10;  Q 171.69 80.64 184.76 77.23&#10;  Q 188.63 76.22 190.32 71.70&#10;  C 191.64 68.16 188.22 64.01 185.68 61.11&#10;  Q 176.97 51.16 168.27 42.44&#10;  Q 167.15 41.32 165.74 40.61&#10;  Q 161.13 38.31 156.76 36.22&#10;  Q 153.28 34.54 146.73 33.46&#10;  C 144.72 33.13 143.02 31.95 141.00 31.52&#10;  Q 132.03 29.57 126.35 29.17&#10;  Q 121.13 28.79 111.01 29.37&#10;  Q 104.23 29.76 97.75 32.00&#10;  Q 91.62 34.12 86.04 36.93&#10;  Q 80.78 39.59 75.86 43.53&#10;  C 69.04 49.01 61.98 54.04 57.04 60.48&#10;  Q 50.25 69.35 42.81 79.49&#10;  C 40.37 82.81 38.52 86.43 36.14 89.63&#10;  Q 33.51 93.14 31.17 97.53&#10;  C 28.33 102.85 25.55 108.12 22.98 113.53&#10;  Q 20.40 118.97 17.71 122.85&#10;  Q 15.68 125.80 13.18 128.96&#10;  C 10.37 132.51 7.06 135.50 4.61 139.24&#10;  C 0.38 145.71 3.63 154.01 9.05 158.54&#10;  Q 12.91 161.75 17.61 160.96&#10;  Q 26.03 159.53 35.29 162.16&#10;  Q 51.07 166.65 69.21 171.67&#10;  Q 75.82 173.50 81.99 174.41&#10;  C 88.68 175.40 95.24 177.51 102.00 177.92&#10;  Q 108.66 178.33 115.50 178.50&#10;  Q 121.75 178.66 129.19 177.67&#10;  Q 144.91 175.58 155.49 173.19&#10;  C 173.72 169.07 188.99 159.91 196.47 142.11&#10;  C 201.07 131.19 201.80 116.08 200.78 104.51&#10;  C 200.41 100.20 197.93 86.54 192.65 84.87&#10;  Q 187.35 83.20 181.54 83.86&#10;  C 173.74 84.75 165.47 87.06 157.22 88.57&#10;  Q 149.92 89.91 141.88 91.59&#10;  C 132.42 93.57 125.88 95.94 117.98 100.80&#10;  C 115.30 102.46 112.27 103.58 109.48 105.06&#10;  Q 98.56 110.86 87.47 116.33&#10;  C 82.18 118.94 71.60 126.62 65.67 124.98&#10;  C 61.74 123.90 60.63 120.11 60.52 116.17&#10;  Z" />
    <path fill="#ffffff"
            d="&#10;  M 78.00 102.54&#10;  C 73.64 104.27 60.36 110.37 60.52 116.17&#10;  C 60.63 120.11 61.74 123.90 65.67 124.98&#10;  C 71.60 126.62 82.18 118.94 87.47 116.33&#10;  Q 98.56 110.86 109.48 105.06&#10;  C 112.27 103.58 115.30 102.46 117.98 100.80&#10;  C 125.88 95.94 132.42 93.57 141.88 91.59&#10;  Q 149.92 89.91 157.22 88.57&#10;  C 165.47 87.06 173.74 84.75 181.54 83.86&#10;  Q 187.35 83.20 192.65 84.87&#10;  C 197.93 86.54 200.41 100.20 200.78 104.51&#10;  C 201.80 116.08 201.07 131.19 196.47 142.11&#10;  C 188.99 159.91 173.72 169.07 155.49 173.19&#10;  Q 144.91 175.58 129.19 177.67&#10;  Q 121.75 178.66 115.50 178.50&#10;  Q 108.66 178.33 102.00 177.92&#10;  C 95.24 177.51 88.68 175.40 81.99 174.41&#10;  Q 75.82 173.50 69.21 171.67&#10;  Q 51.07 166.65 35.29 162.16&#10;  Q 26.03 159.53 17.61 160.96&#10;  Q 12.91 161.75 9.05 158.54&#10;  C 3.63 154.01 0.38 145.71 4.61 139.24&#10;  C 7.06 135.50 10.37 132.51 13.18 128.96&#10;  Q 15.68 125.80 17.71 122.85&#10;  Q 20.40 118.97 22.98 113.53&#10;  C 25.55 108.12 28.33 102.85 31.17 97.53&#10;  Q 33.51 93.14 36.14 89.63&#10;  C 38.52 86.43 40.37 82.81 42.81 79.49&#10;  Q 50.25 69.35 57.04 60.48&#10;  C 61.98 54.04 69.04 49.01 75.86 43.53&#10;  Q 80.78 39.59 86.04 36.93&#10;  Q 91.62 34.12 97.75 32.00&#10;  Q 104.23 29.76 111.01 29.37&#10;  Q 121.13 28.79 126.35 29.17&#10;  Q 132.03 29.57 141.00 31.52&#10;  C 143.02 31.95 144.72 33.13 146.73 33.46&#10;  Q 153.28 34.54 156.76 36.22&#10;  Q 161.13 38.31 165.74 40.61&#10;  Q 167.15 41.32 168.27 42.44&#10;  Q 176.97 51.16 185.68 61.11&#10;  C 188.22 64.01 191.64 68.16 190.32 71.70&#10;  Q 188.63 76.22 184.76 77.23&#10;  Q 171.69 80.64 163.23 82.69&#10;  Q 145.83 86.90 126.99 91.20&#10;  Q 121.27 92.51 115.87 93.16&#10;  Q 109.71 93.90 104.60 95.16&#10;  Q 83.37 100.40 78.00 102.54&#10;  Z" />
</svg>